<svg width="212" height="93" viewBox="0 0 212 93" fill="none" xmlns="http://www.w3.org/2000/svg">
<path d="M121 0C132.752 0 143 9.702 143 20.9C143 31.9088 132.983 40.5724 121 40.5724C118.437 40.5738 115.89 40.1683 113.454 39.3712C112.433 40.3612 112.083 40.6978 109.916 42.7878C108.354 43.967 106.885 44.3674 105.571 43.6238C104.247 42.8758 103.849 41.4194 104.119 39.501L104.999 34.3992C101.178 30.8044 99 26.0524 99 20.9C99 9.702 109.245 0 121 0ZM121 3.08C110.911 3.08 102.08 11.44 102.08 20.9C102.08 25.399 104.086 29.5416 107.624 32.626L107.668 32.6634L108.321 33.231L108.174 34.089L107.87 35.8578L107.789 36.3286L107.162 39.9762C107.125 40.2218 107.103 40.4694 107.096 40.7176V40.9266C107.096 40.9376 107.094 40.942 107.092 40.9442C107.107 40.9222 107.406 40.8276 107.919 40.4536L112.693 35.8204L113.604 36.1636C115.97 37.0464 118.475 37.4972 121 37.4946C131.375 37.4946 139.92 30.1026 139.92 20.9C139.92 11.4422 131.089 3.08 121 3.08ZM110.499 17.1886C110.943 17.1724 111.385 17.2457 111.799 17.4042C112.213 17.5626 112.591 17.8029 112.91 18.1107C113.23 18.4186 113.484 18.7876 113.657 19.1958C113.83 19.6039 113.92 20.0429 113.92 20.4864C113.92 20.9299 113.83 21.3689 113.657 21.777C113.484 22.1852 113.23 22.5542 112.91 22.8621C112.591 23.1699 112.213 23.4102 111.799 23.5686C111.385 23.7271 110.943 23.8004 110.499 23.7842C109.646 23.753 108.837 23.3919 108.244 22.7769C107.651 22.1618 107.32 21.3408 107.32 20.4864C107.32 19.632 107.651 18.811 108.244 18.1959C108.837 17.5809 109.646 17.2198 110.499 17.1886ZM121.495 17.1886C121.938 17.1724 122.38 17.2457 122.794 17.4042C123.209 17.5626 123.587 17.8029 123.906 18.1107C124.225 18.4186 124.479 18.7876 124.653 19.1958C124.826 19.6039 124.915 20.0429 124.915 20.4864C124.915 20.9299 124.826 21.3689 124.653 21.777C124.479 22.1852 124.225 22.5542 123.906 22.8621C123.587 23.1699 123.209 23.4102 122.794 23.5686C122.38 23.7271 121.938 23.8004 121.495 23.7842C120.641 23.753 119.833 23.3919 119.24 22.7769C118.647 22.1618 118.315 21.3408 118.315 20.4864C118.315 19.632 118.647 18.811 119.24 18.1959C119.833 17.5809 120.641 17.2198 121.495 17.1886ZM132.488 17.1886C132.932 17.1724 133.374 17.2457 133.788 17.4042C134.202 17.5626 134.58 17.8029 134.899 18.1107C135.219 18.4186 135.473 18.7876 135.646 19.1958C135.819 19.6039 135.909 20.0429 135.909 20.4864C135.909 20.9299 135.819 21.3689 135.646 21.777C135.473 22.1852 135.219 22.5542 134.899 22.8621C134.58 23.1699 134.202 23.4102 133.788 23.5686C133.374 23.7271 132.932 23.8004 132.488 23.7842C131.635 23.753 130.826 23.3919 130.233 22.7769C129.64 22.1618 129.309 21.3408 129.309 20.4864C129.309 19.632 129.64 18.811 130.233 18.1959C130.826 17.5809 131.635 17.2198 132.488 17.1886Z" fill="#421CAC"/>
<path d="M15.84 75.1712C14.112 75.1712 11.92 74.8512 9.264 74.2112C7.6 74.6592 6.048 74.8832 4.608 74.8832C3.168 74.8832 2.336 74.8352 2.112 74.7392C2.336 72.8192 3.28 68.0992 4.944 60.5792C6.64 53.0272 7.488 48.2912 7.488 46.3712C7.488 45.9872 7.28 45.4752 6.864 44.8352C6.448 44.1952 6.032 43.6512 5.616 43.2032L4.992 42.5312L5.136 41.8112C9.328 40.9472 13.84 40.5152 18.672 40.5152C21.328 40.5152 23.504 41.1552 25.2 42.4352C26.928 43.6832 27.792 45.4432 27.792 47.7152C27.792 52.0992 25.12 55.1392 19.776 56.8352C21.92 57.0912 23.712 57.9072 25.152 59.2832C26.624 60.6272 27.36 62.5312 27.36 64.9952C27.36 68.0032 26.272 70.4512 24.096 72.3392C21.92 74.2272 19.168 75.1712 15.84 75.1712ZM14.976 58.1312C14.08 58.1312 13.28 58.2112 12.576 58.3712C11.2 64.4512 10.32 68.6912 9.936 71.0912C10.736 71.6352 11.984 71.9072 13.68 71.9072C15.408 71.9072 16.88 71.2352 18.096 69.8912C19.312 68.5152 19.92 66.5472 19.92 63.9872C19.92 60.0832 18.272 58.1312 14.976 58.1312ZM17.664 43.4912C16.448 43.4912 15.728 43.6032 15.504 43.8272C15.056 46.7072 14.32 50.4832 13.296 55.1552C14.576 55.1552 15.472 55.0752 15.984 54.9152C16.496 54.7552 16.944 54.5472 17.328 54.2912C17.744 54.0352 18.208 53.6352 18.72 53.0912C19.84 51.9072 20.4 50.0192 20.4 47.4272C20.4 44.8032 19.488 43.4912 17.664 43.4912ZM30.1834 70.9952C30.1834 69.6192 30.5994 67.2832 31.4314 63.9872C32.2634 60.6592 32.6794 58.6272 32.6794 57.8912C32.6794 57.1232 32.1034 56.1152 30.9514 54.8672L30.9994 54.2432C33.1754 53.7952 36.0394 53.5712 39.5914 53.5712C39.7514 53.9872 39.8314 54.7392 39.8314 55.8272C39.8314 56.9152 39.3834 59.2352 38.4874 62.7872C37.5914 66.3392 37.1434 68.5472 37.1434 69.4112C37.1434 70.2752 37.4634 70.7072 38.1034 70.7072C39.0314 70.7072 40.1034 70.3712 41.3194 69.6992C41.4474 68.9312 41.7674 67.4592 42.2794 65.2832C43.4314 60.1632 44.0074 56.4992 44.0074 54.2912C45.1274 53.8432 47.1434 53.6192 50.0554 53.6192H50.9674C50.9674 55.1232 50.5194 58.0672 49.6234 62.4512C48.7274 66.8032 48.2794 69.3632 48.2794 70.1312C48.2794 70.8672 48.4394 71.2352 48.7594 71.2352C48.9514 71.2352 49.8634 70.8512 51.4954 70.0832L52.4074 71.6192C49.5594 73.9872 47.0634 75.1712 44.9194 75.1712C43.8954 75.1712 43.0154 74.8832 42.2794 74.3072C41.5754 73.7312 41.1754 72.9792 41.0794 72.0512C38.4874 74.1632 36.1354 75.2192 34.0234 75.2192C32.9034 75.2192 31.9754 74.8512 31.2394 74.1152C30.5354 73.3792 30.1834 72.3392 30.1834 70.9952ZM76.5045 71.6672C73.7845 74.0032 71.3845 75.1712 69.3045 75.1712C67.2565 75.1712 66.0725 74.1472 65.7525 72.0992C64.7925 73.0592 63.7205 73.8112 62.5365 74.3552C61.3525 74.8992 60.3125 75.1712 59.4165 75.1712C57.8805 75.1712 56.5685 74.4992 55.4805 73.1552C54.3925 71.8112 53.8485 69.7312 53.8485 66.9152C53.8485 62.6912 54.7445 59.3792 56.5365 56.9792C58.3285 54.5472 60.3445 53.3312 62.5845 53.3312C64.8565 53.3312 66.7605 53.8432 68.2965 54.8672C69.2885 49.6832 69.7845 45.6032 69.7845 42.6272L69.5445 40.6112C71.9445 39.7792 74.2965 39.3632 76.6005 39.3632C76.8565 39.9072 76.9845 40.5312 76.9845 41.2352C76.9845 43.5712 76.2805 48.3232 74.8725 55.4912C73.4645 62.6272 72.7605 67.4752 72.7605 70.0352C72.7605 70.8032 72.9365 71.1872 73.2885 71.1872C73.4805 71.1872 74.0885 70.8832 75.1125 70.2752L75.5925 69.9872L76.5045 71.6672ZM64.9365 56.1632C63.8165 56.1632 62.8405 57.2672 62.0085 59.4752C61.2085 61.6832 60.8085 63.8752 60.8085 66.0512C60.8085 68.1952 60.9525 69.5712 61.2405 70.1792C61.5605 70.7872 62.0245 71.0912 62.6325 71.0912C63.6885 71.0912 64.7285 70.6592 65.7525 69.7952C65.8485 68.5152 66.5685 64.2592 67.9125 57.0272C66.8245 56.4512 65.8325 56.1632 64.9365 56.1632ZM100.598 71.6672C97.8783 74.0032 95.4783 75.1712 93.3983 75.1712C91.3503 75.1712 90.1663 74.1472 89.8463 72.0992C88.8863 73.0592 87.8143 73.8112 86.6303 74.3552C85.4463 74.8992 84.4063 75.1712 83.5103 75.1712C81.9743 75.1712 80.6623 74.4992 79.5742 73.1552C78.4863 71.8112 77.9423 69.7312 77.9423 66.9152C77.9423 62.6912 78.8383 59.3792 80.6303 56.9792C82.4223 54.5472 84.4383 53.3312 86.6783 53.3312C88.9503 53.3312 90.8543 53.8432 92.3903 54.8672C93.3823 49.6832 93.8783 45.6032 93.8783 42.6272L93.6383 40.6112C96.0383 39.7792 98.3903 39.3632 100.694 39.3632C100.95 39.9072 101.078 40.5312 101.078 41.2352C101.078 43.5712 100.374 48.3232 98.9663 55.4912C97.5583 62.6272 96.8543 67.4752 96.8543 70.0352C96.8543 70.8032 97.0303 71.1872 97.3823 71.1872C97.5743 71.1872 98.1823 70.8832 99.2063 70.2752L99.6863 69.9872L100.598 71.6672ZM89.0303 56.1632C87.9103 56.1632 86.9343 57.2672 86.1023 59.4752C85.3023 61.6832 84.9023 63.8752 84.9023 66.0512C84.9023 68.1952 85.0463 69.5712 85.3343 70.1792C85.6543 70.7872 86.1183 71.0912 86.7263 71.0912C87.7823 71.0912 88.8223 70.6592 89.8463 69.7952C89.9423 68.5152 90.6623 64.2592 92.0063 57.0272C90.9183 56.4512 89.9263 56.1632 89.0303 56.1632ZM108.468 79.7792C107.412 80.4192 106.884 81.0432 106.884 81.6512C106.884 82.2592 107.22 82.5632 107.892 82.5632C108.596 82.5632 109.38 82.2272 110.244 81.5552C111.108 80.9152 111.828 79.8592 112.404 78.3872C110.868 78.6752 109.556 79.1392 108.468 79.7792ZM106.164 74.7872C103.476 74.7872 102.132 73.3152 102.132 70.3712C102.132 69.6672 102.452 67.6352 103.092 64.2752C103.732 60.9152 104.052 58.1152 104.052 55.8752C104.052 55.3952 103.988 54.9472 103.86 54.5312C105.588 53.8592 107.956 53.5232 110.964 53.5232C111.124 53.9712 111.204 54.7392 111.204 55.8272C111.204 56.9152 110.852 59.1712 110.148 62.5952C109.444 66.0192 109.092 68.2272 109.092 69.2192C109.092 70.2112 109.508 70.7072 110.34 70.7072C111.332 70.7072 112.532 70.2112 113.94 69.2192C114.1 67.3312 114.74 62.3552 115.86 54.2912C116.98 53.8432 118.996 53.6192 121.908 53.6192H122.82C122.212 56.0192 121.62 59.4752 121.044 63.9872C120.468 68.4992 120.004 71.6352 119.652 73.3952C118.98 76.9152 117.732 79.7792 115.908 81.9872C114.116 84.2272 111.764 85.3472 108.852 85.3472C107.7 85.3472 106.644 85.0432 105.684 84.4352C104.756 83.8272 104.292 83.0432 104.292 82.0832C104.292 80.8032 105.076 79.6352 106.644 78.5792C108.212 77.5232 110.324 76.7072 112.98 76.1312C113.268 74.7232 113.492 73.3632 113.652 72.0512C111.06 73.8752 108.564 74.7872 106.164 74.7872Z" fill="#421CAC"/>
<path d="M135.206 75.1712C132.23 75.1712 129.766 73.9712 127.814 71.5712C125.862 69.1392 124.886 65.9712 124.886 62.0672C124.886 58.1632 125.558 54.6112 126.902 51.4112C128.246 48.1792 130.166 45.5552 132.662 43.5392C135.158 41.5232 137.814 40.5152 140.63 40.5152C143.478 40.5152 145.766 41.1552 147.494 42.4352C149.254 43.7152 150.134 45.2512 150.134 47.0432C150.134 48.8032 149.606 50.3072 148.55 51.5552C147.526 51.5552 146.374 51.3312 145.094 50.8832C143.814 50.4352 142.854 49.8912 142.214 49.2512L143.126 44.4032C142.358 43.9232 141.35 43.6832 140.102 43.6832C138.15 43.6832 136.422 45.3632 134.918 48.7232C133.414 52.0512 132.662 56.1632 132.662 61.0592C132.662 64.2912 133.19 66.6432 134.246 68.1152C135.334 69.5552 136.646 70.2752 138.182 70.2752C140.71 70.2752 143.142 69.0912 145.478 66.7232L147.446 68.4992C147.094 69.0112 146.454 69.7152 145.526 70.6112C144.598 71.5072 143.686 72.2592 142.79 72.8672C141.894 73.4432 140.758 73.9712 139.382 74.4512C138.006 74.9312 136.614 75.1712 135.206 75.1712ZM155.509 42.9152C155.509 41.8592 155.413 41.1072 155.221 40.6592C157.717 39.7952 160.069 39.3632 162.277 39.3632C162.565 39.6512 162.709 40.3872 162.709 41.5712C162.709 43.6832 161.813 48.5472 160.021 56.1632C162.613 54.2752 164.885 53.3312 166.837 53.3312C168.053 53.3312 168.965 53.7152 169.573 54.4832C170.213 55.2512 170.533 56.2752 170.533 57.5552C170.533 58.8032 170.165 60.8672 169.429 63.7472C168.693 66.5952 168.325 68.5472 168.325 69.6032C168.325 70.6592 168.453 71.1872 168.709 71.1872C168.965 71.1872 169.637 70.8992 170.725 70.3232L171.301 70.0352L172.165 71.7152C171.877 71.9712 171.493 72.2912 171.013 72.6752C170.533 73.0592 169.653 73.5712 168.373 74.2112C167.093 74.8512 165.909 75.1712 164.821 75.1712C163.765 75.1712 162.917 74.8352 162.277 74.1632C161.637 73.4592 161.317 72.5312 161.317 71.3792C161.317 70.1952 161.669 68.0672 162.373 64.9952C163.109 61.8912 163.477 59.9392 163.477 59.1392C163.477 58.3072 163.141 57.8912 162.469 57.8912C161.637 57.8912 160.597 58.2432 159.349 58.9472C157.589 66.6912 156.709 71.7152 156.709 74.0192C155.365 74.5312 153.077 74.7872 149.845 74.7872C149.813 74.2432 149.797 73.7632 149.797 73.3472C149.797 71.9712 150.741 67.2672 152.629 59.2352C154.549 51.2032 155.509 45.7632 155.509 42.9152ZM188.01 54.7232C188.074 54.6592 188.25 54.2432 188.538 53.4752C190.042 53.4752 192.058 53.9232 194.586 54.8192C193.786 57.4752 193.146 60.2592 192.666 63.1712C192.186 66.0512 191.946 68.1152 191.946 69.3632C191.946 70.5792 192.074 71.1872 192.33 71.1872C192.522 71.1872 193.226 70.8832 194.442 70.2752L195.018 69.9872L195.882 71.6672C195.594 71.9232 195.21 72.2432 194.73 72.6272C194.282 73.0112 193.418 73.5392 192.138 74.2112C190.858 74.8512 189.706 75.1712 188.682 75.1712C186.698 75.1712 185.546 74.2752 185.226 72.4832C183.178 74.2752 181.322 75.1712 179.658 75.1712C178.026 75.1712 176.634 74.5312 175.482 73.2512C174.362 71.9712 173.802 69.9552 173.802 67.2032C173.802 62.9152 174.682 59.5392 176.442 57.0752C178.202 54.5792 180.33 53.3312 182.826 53.3312C184.618 53.3312 186.346 53.7952 188.01 54.7232ZM182.538 71.0912C183.306 71.0912 184.17 70.7872 185.13 70.1792C185.354 65.6672 186.106 61.2032 187.386 56.7872C186.426 56.3712 185.61 56.1632 184.938 56.1632C183.786 56.1632 182.794 57.2992 181.962 59.5712C181.162 61.8112 180.762 64.2912 180.762 67.0112C180.762 69.7312 181.354 71.0912 182.538 71.0912ZM211.792 53.9072C211.728 54.7072 211.456 55.6352 210.976 56.6912C209.76 56.5632 208.608 56.4992 207.52 56.4992H206.656C205.184 63.6352 204.448 68.0832 204.448 69.8432C204.448 70.7712 204.64 71.2352 205.024 71.2352C205.44 71.2352 206.512 70.8352 208.24 70.0352L209.104 71.6192C206.256 73.9872 203.616 75.1712 201.184 75.1712C200.064 75.1712 199.136 74.8192 198.4 74.1152C197.696 73.4112 197.344 72.4832 197.344 71.3312C197.344 70.1472 197.472 68.8192 197.728 67.3472C198.016 65.8752 198.4 64.0832 198.88 61.9712C199.36 59.8272 199.712 58.0992 199.936 56.7872C198.752 56.8832 197.872 56.9792 197.296 57.0752C197.232 56.6912 197.2 56.1792 197.2 55.5392C197.2 54.8672 197.248 54.3232 197.344 53.9072H200.368C200.624 52.1792 200.752 50.5472 200.752 49.0112L200.704 47.5232V47.3792C203.2 46.5152 205.552 46.0832 207.76 46.0832C207.888 46.7232 207.952 47.5232 207.952 48.4832C207.952 49.4432 207.68 51.2512 207.136 53.9072H211.792Z" fill="black"/>
</svg>
